<svg width="25" height="25" viewBox="0 0 25 25" fill="none" xmlns="http://www.w3.org/2000/svg">
<path d="M12.4868 4.16235C13.5907 4.16235 14.6494 4.60088 15.43 5.38148C16.2106 6.16207 16.6491 7.22078 16.6491 8.3247C16.6491 9.42862 16.2106 10.4873 15.43 11.2679C14.6494 12.0485 13.5907 12.487 12.4868 12.487C11.3829 12.487 10.3242 12.0485 9.54358 11.2679C8.76299 10.4873 8.32445 9.42862 8.32445 8.3247C8.32445 7.22078 8.76299 6.16207 9.54358 5.38148C10.3242 4.60088 11.3829 4.16235 12.4868 4.16235ZM12.4868 14.5682C17.0862 14.5682 20.8115 16.4309 20.8115 18.7306V20.8117H4.16211V18.7306C4.16211 16.4309 7.88741 14.5682 12.4868 14.5682Z" fill="#808080"/>
</svg>
