<svg width="7" height="13" viewBox="0 0 7 13" fill="none" xmlns="http://www.w3.org/2000/svg">
<path d="M0.310022 1.20978C0.217319 1.30229 0.143771 1.41218 0.0935898 1.53315C0.0434083 1.65413 0.0175781 1.78381 0.0175781 1.91478C0.0175781 2.04575 0.0434083 2.17543 0.0935898 2.2964C0.143771 2.41738 0.217319 2.52726 0.310022 2.61978L4.19002 6.49978L0.310022 10.3798C0.123045 10.5668 0.0180016 10.8204 0.0180016 11.0848C0.0180016 11.3492 0.123045 11.6028 0.310022 11.7898C0.497 11.9768 0.750596 12.0818 1.01502 12.0818C1.27945 12.0818 1.53304 11.9768 1.72002 11.7898L6.31002 7.19978C6.40273 7.10726 6.47627 6.99738 6.52645 6.8764C6.57664 6.75543 6.60247 6.62575 6.60247 6.49478C6.60247 6.36381 6.57664 6.23413 6.52645 6.11315C6.47627 5.99218 6.40273 5.88229 6.31002 5.78978L1.72002 1.19978C1.34002 0.819778 0.700022 0.819778 0.310022 1.20978Z" fill="white"/>
</svg>
