<svg width="43" height="36" viewBox="0 0 43 36" fill="none" xmlns="http://www.w3.org/2000/svg">
<path d="M21.7333 9.46094L31.0146 17.3359C31.3661 17.6523 31.4013 18.1797 31.12 18.5312C30.8036 18.8828 30.2763 18.918 29.9247 18.6367L29.081 17.8984V24.4375C29.081 26.0195 27.8153 27.25 26.2685 27.25H16.1435C14.5614 27.25 13.331 26.0195 13.331 24.4375V17.8984L12.4521 18.6367C12.1005 18.918 11.5732 18.8828 11.2567 18.5312C10.9755 18.1797 11.0107 17.6523 11.3622 17.3359L20.6435 9.46094C20.9599 9.21484 21.4169 9.21484 21.7333 9.46094ZM15.0185 24.4375C15.0185 25.0703 15.5107 25.5625 16.1435 25.5625H17.831V20.2188C17.831 19.4453 18.4286 18.8125 19.2372 18.8125H23.1747C23.9482 18.8125 24.581 19.4453 24.581 20.2188V25.5625H26.2685C26.8661 25.5625 27.3935 25.0703 27.3935 24.4375V16.457L21.206 11.2188L15.0185 16.457V24.4375ZM19.5185 25.5625H22.8935V20.5H19.5185V25.5625Z" fill="#808080"/>
</svg>
